<?xml version="1.0" encoding="utf-8"?>
<!-- Generator: Adobe Illustrator 26.5.0, SVG Export Plug-In . SVG Version: 6.00 Build 0)  -->
<svg version="1.1" id="Layer_1" xmlns="http://www.w3.org/2000/svg" x="0px" y="0px"
     viewBox="0 0 3000 1200" style="enable-background:new 0 0 3000 1200;" xml:space="preserve">
<style type="text/css">
	.st0{display:none;}
	.st1{display:inline;fill:#666699;stroke:#000000;stroke-miterlimit:10;}
	.st2{fill:#666699;stroke:#000000;stroke-miterlimit:10;}
	.st3{font-family:'UniviaProRegular';}
	.st4{font-size:1000px;}
</style>
    <g id="Layer_1_00000036211215826218907440000003985665311380908673_">
	    <g id="Layer_2_00000142876203930595805020000008747617984371189645_" class="st0">
		    <rect class="st1" width="3000" height="1200"/>
	    </g>
        <g id="Logo">
		<path class="st2" d="M852.8,321.8v481.6c0,124.2-157.9,296.5-373.6,296.5c-251.8,0-379.1-227.4-379.1-333.2V511.6
			c18.4,0,20.6-0.6,48.3-0.6c79.6,0,169.5,90.6,169.5,146.9c0,23.9,0.6,61.2,0.6,80.2c0,64.3,72.3,147.5,158.5,147.5
			c75.3,0,157.9-73.4,157.9-156.1v-69.8c0-26.9-99.1-58.1-99.1-147.5v-363c0-21.4,30-67.4,75.3-41.6
			C788.6,208.6,852.8,241,852.8,321.8z M796.5,730.7c0-7.3,0.6-202.7,0.6-400.9c0-30-6.7-44.7-98.5-104
			c-57.7-37.3-102.1-63.6-104.7-63.6c-0.6,0-0.6,1.6-0.6,1.8c-0.8,36-0.6,338.4-0.6,348.2c0,64.3,65.5,82,110.2,114.4
			c0,0,84.8,54.9,92.9,104.3c0,0.2,0.5,3.1,0.7,3.1C796.6,734,796.5,732.9,796.5,730.7z"/>
        </g>
    </g>
    <g id="Layer_2_00000072269728312990829290000016742663062486908836_">
	    <text transform="matrix(1 0 0 1 937.058 978.5018)" class="st2 st3 st4">AGR</text>
        <text transform="matrix(1 0 0 1 937.058 978.5018)" class="st2 st3 st4">AGR</text>
    </g>
</svg>
