<?xml version="1.0" encoding="utf-8"?>
<!-- Generator: Adobe Illustrator 26.5.0, SVG Export Plug-In . SVG Version: 6.00 Build 0)  -->
<svg version="1.1" id="Layer_1" xmlns="http://www.w3.org/2000/svg" x="0px" y="0px"
     viewBox="0 0 3000 1200" style="enable-background:new 0 0 3000 1200;" xml:space="preserve">
<style type="text/css">
    .st0{display:none;}
    .st1{display:inline;fill:#666699;stroke:#000000;stroke-miterlimit:10;}
    .st2{fill:#666699;stroke:#000000;stroke-miterlimit:10;}
    .st3{enable-background:new    ;}
</style>
    <g id="Layer_1_00000036211215826218907440000003985665311380908673_">
        <g id="Layer_2_00000142876203930595805020000008747617984371189645_" class="st0">
            <rect class="st1" width="3000" height="1200"/>
        </g>
        <g id="Logo">
            <path class="st2" d="M852.8,321.8v481.6c0,124.2-157.9,296.5-373.6,296.5c-251.8,0-379.1-227.4-379.1-333.2V511.6
                c18.4,0,20.6-0.6,48.3-0.6c79.6,0,169.5,90.6,169.5,146.9c0,23.9,0.6,61.2,0.6,80.2c0,64.3,72.3,147.5,158.5,147.5
                c75.3,0,157.9-73.4,157.9-156.1v-69.8c0-26.9-99.1-58.1-99.1-147.5v-363c0-21.4,30-67.4,75.3-41.6
                C788.6,208.6,852.8,241,852.8,321.8z M796.5,730.7c0-7.3,0.6-202.7,0.6-400.9c0-30-6.7-44.7-98.5-104
                c-57.7-37.3-102.1-63.6-104.7-63.6c-0.6,0-0.6,1.6-0.6,1.8c-0.8,36-0.6,338.4-0.6,348.2c0,64.3,65.5,82,110.2,114.4
                c0,0,84.8,54.9,92.9,104.3c0,0.2,0.5,3.1,0.7,3.1C796.6,734,796.5,732.9,796.5,730.7z"/>
        </g>
    </g>
    <g id="Layer_2_00000072269728312990829290000016742663062486908836_">
        <g class="st3">
            <path class="st2" d="M1419.1,333.5l171,629c2,13,0,16-12,16h-78c-8,0-10-3-13-16l-62-221h-301l-63,221c-3,13-4,16-13,16h-78
                c-12,0-14-3-12-16l177-629c29-103,46-117,139-117C1377.1,216.5,1391.1,230.5,1419.1,333.5z M1231.1,357.5l-82,296h253l-78-296
                c-13-46-15-53-50-53C1245.1,304.5,1243.1,311.5,1231.1,357.5z"/>
            <path class="st2" d="M2168.1,226.5c10,1,16,7,16,17v47c0,10-5,15-15,15h-193c-173,0-203,67-203,296c0,228,30,293,203,293h152v-274
                c0-10,5-16,15-16h66c10,0,15,6,15,16v298c0,11-1,15-3,20c-21,45-157,45-245,45c-244,0-304-86-304-382c0-297,60-385,304-385
                C2037.1,216.5,2118.1,219.5,2168.1,226.5z"/>
            <path class="st2" d="M2887,460.5c0,160-44,213-164,229l169,269c8,11,3,20-12,20h-64c-23,0-30-7-40-22l-165-261h-151v268
                c0,12-3,15-15,15h-71c-12,0-15-3-15-15v-725c0-12,3-14,15-15c71-5,157-7,213-7C2812,216.5,2887,254.5,2887,460.5z M2460,305.5v304
                h118c165,0,207-7,207-147c0-138-42-157-207-157H2460z"/>
        </g>
        <g class="st3">
            <path class="st2" d="M1419.1,333.5l171,629c2,13,0,16-12,16h-78c-8,0-10-3-13-16l-62-221h-301l-63,221c-3,13-4,16-13,16h-78
                c-12,0-14-3-12-16l177-629c29-103,46-117,139-117C1377.1,216.5,1391.1,230.5,1419.1,333.5z M1231.1,357.5l-82,296h253l-78-296
                c-13-46-15-53-50-53C1245.1,304.5,1243.1,311.5,1231.1,357.5z"/>
            <path class="st2" d="M2168.1,226.5c10,1,16,7,16,17v47c0,10-5,15-15,15h-193c-173,0-203,67-203,296c0,228,30,293,203,293h152v-274
                c0-10,5-16,15-16h66c10,0,15,6,15,16v298c0,11-1,15-3,20c-21,45-157,45-245,45c-244,0-304-86-304-382c0-297,60-385,304-385
                C2037.1,216.5,2118.1,219.5,2168.1,226.5z"/>
            <path class="st2" d="M2887,460.5c0,160-44,213-164,229l169,269c8,11,3,20-12,20h-64c-23,0-30-7-40-22l-165-261h-151v268
                c0,12-3,15-15,15h-71c-12,0-15-3-15-15v-725c0-12,3-14,15-15c71-5,157-7,213-7C2812,216.5,2887,254.5,2887,460.5z M2460,305.5v304
                h118c165,0,207-7,207-147c0-138-42-157-207-157H2460z"/>
        </g>
    </g>
</svg>
