<svg id="Logo" xmlns="http://www.w3.org/2000/svg" viewBox="0 0 1230 1633.97"><defs><style>.cls-1{fill:#fff;}</style></defs><path class="cls-1" d="M1643.5,576.5v787c0,203-258,484.5-610.5,484.5-411.5,0-619.5-371.5-619.5-544.5v-417c30,0,33.68-1,79-1,130,0,277,148,277,240,0,39,1,100,1,131,0,105,118.17,241,259,241,123,0,258-120,258-255v-114c0-44-162-95-162-241v-593c0-35,49-110.08,123-68C1538.5,391.5,1643.5,444.5,1643.5,576.5Zm-92,668c0-12,1-331.21,1-655,0-49-11-73-161-170-94.35-61-166.78-104-171-104-1,0-1,2.54-1,3-1.32,58.75-1,553-1,569,0,105,107,134,180,187,0,0,138.62,89.69,151.87,170.41,0,.25.8,5,1.12,5C1551.58,1250,1551.5,1248.22,1551.5,1244.5Z" transform="translate(-413.5 -214.03)"/></svg>